# xmcd CD database file
#
# Track frame offsets:
#	150
#	10349
#	21237
#	31618
#	42969
#	53850
#	66233
#	79152
#	88851
#	99539
#	113033
#	124359
#	134421
#	144511
#	155707
#	172184
#	183763
#	192594
#
# Disc length: 2720 seconds
#
# Revision: 0
# Processed by: cddbd v1.5.1PL0 Copyright (c) Steve Scherf et al.
# Submitted via: CDex 1.51
#
DISCID=fe0a9e12
DTITLE=Various Artist - Remember Then Vol 3 PBXCD 352 - 3
DYEAR=2002
DGENRE=DooWop
TTITLE0=Marcels - Blue Moon  1961
TTITLE1=Collegians - Zoom Zoom Zoom 1958
TTITLE2=Gene Chandler - Duke Of Earl 1961
TTITLE3=Lee Andrews and The Hearts - P.S I Love You 1961
TTITLE4=Danny and The Juniors - A Thousand Miles Away 1960
TTITLE5=Duprees - You Belong to Me 1962
TTITLE6=Crests - 16 Candles 1958
TTITLE7=Earls - Remember Then 1962
TTITLE8=Supremes - Zip Boom 1985
TTITLE9=Corsairs - Smoky Places 1961
TTITLE10=Shells - Baby Oh Baby 1957
TTITLE11=Capris - There's A Moon Out Tonight 1958
TTITLE12=Classics - Till Then 1963
TTITLE13=Chimes - Once In A While 1060
TTITLE14=Olympics - (Baby) Hully Gully 1959
TTITLE15=Jive Five - My True Story 1961
TTITLE16=Fireflies - You Were Mine 1959
TTITLE17=Safaris - Image of a Girl 1960
EXTD=YEAR: 2002
EXTT0=
EXTT1=
EXTT2=
EXTT3=
EXTT4=
EXTT5=
EXTT6=
EXTT7=
EXTT8=
EXTT9=
EXTT10=
EXTT11=
EXTT12=
EXTT13=
EXTT14=
EXTT15=
EXTT16=
EXTT17=
PLAYORDER=
